<svg width="160" height="38" viewBox="0 0 160 38" fill="none" xmlns="http://www.w3.org/2000/svg">
<path d="M10.8906 21.8906H5.09375V18.2344H10.8906C11.7865 18.2344 12.5156 18.0885 13.0781 17.7969C13.6406 17.4948 14.0521 17.0781 14.3125 16.5469C14.5729 16.0156 14.7031 15.4167 14.7031 14.75C14.7031 14.0729 14.5729 13.4427 14.3125 12.8594C14.0521 12.276 13.6406 11.8073 13.0781 11.4531C12.5156 11.099 11.7865 10.9219 10.8906 10.9219H6.71875V30H2.03125V7.25H10.8906C12.6719 7.25 14.1979 7.57292 15.4688 8.21875C16.75 8.85417 17.7292 9.73438 18.4062 10.8594C19.0833 11.9844 19.4219 13.2708 19.4219 14.7188C19.4219 16.1875 19.0833 17.4583 18.4062 18.5312C17.7292 19.6042 16.75 20.4323 15.4688 21.0156C14.1979 21.599 12.6719 21.8906 10.8906 21.8906ZM29.9375 30.3125C28.625 30.3125 27.4479 30.1042 26.4062 29.6875C25.3646 29.2604 24.4792 28.6719 23.75 27.9219C23.0312 27.1719 22.4792 26.3021 22.0938 25.3125C21.7083 24.3125 21.5156 23.25 21.5156 22.125V21.5C21.5156 20.2188 21.6979 19.0469 22.0625 17.9844C22.4271 16.9219 22.9479 16 23.625 15.2188C24.3125 14.4375 25.1458 13.8385 26.125 13.4219C27.1042 12.9948 28.2083 12.7812 29.4375 12.7812C30.6354 12.7812 31.6979 12.9792 32.625 13.375C33.5521 13.7708 34.3281 14.3333 34.9531 15.0625C35.5885 15.7917 36.0677 16.6667 36.3906 17.6875C36.7135 18.6979 36.875 19.8229 36.875 21.0625V22.9375H23.4375V19.9375H32.4531V19.5938C32.4531 18.9688 32.3385 18.4115 32.1094 17.9219C31.8906 17.4219 31.5573 17.026 31.1094 16.7344C30.6615 16.4427 30.0885 16.2969 29.3906 16.2969C28.7969 16.2969 28.2865 16.4271 27.8594 16.6875C27.4323 16.9479 27.0833 17.3125 26.8125 17.7812C26.5521 18.25 26.3542 18.8021 26.2188 19.4375C26.0938 20.0625 26.0312 20.75 26.0312 21.5V22.125C26.0312 22.8021 26.125 23.4271 26.3125 24C26.5104 24.5729 26.7865 25.0677 27.1406 25.4844C27.5052 25.901 27.9427 26.224 28.4531 26.4531C28.974 26.6823 29.5625 26.7969 30.2188 26.7969C31.0312 26.7969 31.7865 26.6406 32.4844 26.3281C33.1927 26.0052 33.8021 25.5208 34.3125 24.875L36.5 27.25C36.1458 27.7604 35.6615 28.25 35.0469 28.7188C34.4427 29.1875 33.7135 29.5729 32.8594 29.875C32.0052 30.1667 31.0312 30.3125 29.9375 30.3125ZM47.7188 13.0938V16.2812H37.875V13.0938H47.7188ZM40.3125 8.92188H44.8125V24.9062C44.8125 25.3958 44.875 25.7708 45 26.0312C45.1354 26.2917 45.3333 26.474 45.5938 26.5781C45.8542 26.6719 46.1823 26.7188 46.5781 26.7188C46.8594 26.7188 47.1094 26.7083 47.3281 26.6875C47.5573 26.6562 47.75 26.625 47.9062 26.5938L47.9219 29.9062C47.5365 30.0312 47.1198 30.1302 46.6719 30.2031C46.224 30.276 45.7292 30.3125 45.1875 30.3125C44.1979 30.3125 43.3333 30.151 42.5938 29.8281C41.8646 29.4948 41.3021 28.9635 40.9062 28.2344C40.5104 27.5052 40.3125 26.5469 40.3125 25.3594V8.92188ZM63.75 22.4531H68.4219C68.3281 23.9844 67.9062 25.3438 67.1562 26.5312C66.4167 27.7188 65.3802 28.6458 64.0469 29.3125C62.724 29.9792 61.1302 30.3125 59.2656 30.3125C57.8073 30.3125 56.5 30.0625 55.3438 29.5625C54.1875 29.0521 53.1979 28.3229 52.375 27.375C51.5625 26.4271 50.9427 25.2812 50.5156 23.9375C50.0885 22.5938 49.875 21.0885 49.875 19.4219V17.8438C49.875 16.1771 50.0938 14.6719 50.5312 13.3281C50.9792 11.974 51.6146 10.8229 52.4375 9.875C53.2708 8.92708 54.2656 8.19792 55.4219 7.6875C56.5781 7.17708 57.8698 6.92188 59.2969 6.92188C61.1927 6.92188 62.7917 7.26562 64.0938 7.95312C65.4062 8.64062 66.4219 9.58854 67.1406 10.7969C67.8698 12.0052 68.3073 13.3802 68.4531 14.9219H63.7656C63.7135 14.0052 63.5312 13.2292 63.2188 12.5938C62.9062 11.9479 62.4323 11.4635 61.7969 11.1406C61.1719 10.8073 60.3385 10.6406 59.2969 10.6406C58.5156 10.6406 57.8333 10.7865 57.25 11.0781C56.6667 11.3698 56.1771 11.8125 55.7812 12.4062C55.3854 13 55.0885 13.75 54.8906 14.6562C54.7031 15.5521 54.6094 16.6042 54.6094 17.8125V19.4219C54.6094 20.599 54.6979 21.6354 54.875 22.5312C55.0521 23.4167 55.3229 24.1667 55.6875 24.7812C56.0625 25.3854 56.5417 25.8438 57.125 26.1562C57.7188 26.4583 58.4323 26.6094 59.2656 26.6094C60.2448 26.6094 61.0521 26.4531 61.6875 26.1406C62.3229 25.8281 62.8073 25.3646 63.1406 24.75C63.4844 24.1354 63.6875 23.3698 63.75 22.4531ZM99.5312 16.7031V30H95.0312V13.0938H99.25L99.5312 16.7031ZM98.875 20.9531H97.6562C97.6562 19.7031 97.8177 18.5781 98.1406 17.5781C98.4635 16.5677 98.9167 15.7083 99.5 15C100.083 14.2812 100.776 13.7344 101.578 13.3594C102.391 12.974 103.297 12.7812 104.297 12.7812C105.089 12.7812 105.812 12.8958 106.469 13.125C107.125 13.3542 107.688 13.7188 108.156 14.2188C108.635 14.7188 109 15.3802 109.25 16.2031C109.51 17.026 109.641 18.0312 109.641 19.2188V30H105.109V19.2031C105.109 18.4531 105.005 17.8698 104.797 17.4531C104.589 17.0365 104.281 16.7448 103.875 16.5781C103.479 16.401 102.99 16.3125 102.406 16.3125C101.802 16.3125 101.276 16.4323 100.828 16.6719C100.391 16.9115 100.026 17.2448 99.7344 17.6719C99.4531 18.0885 99.2396 18.5781 99.0938 19.1406C98.9479 19.7031 98.875 20.3073 98.875 20.9531ZM121.344 13.0938V16.2812H111.5V13.0938H121.344ZM113.938 8.92188H118.438V24.9062C118.438 25.3958 118.5 25.7708 118.625 26.0312C118.76 26.2917 118.958 26.474 119.219 26.5781C119.479 26.6719 119.807 26.7188 120.203 26.7188C120.484 26.7188 120.734 26.7083 120.953 26.6875C121.182 26.6562 121.375 26.625 121.531 26.5938L121.547 29.9062C121.161 30.0312 120.745 30.1302 120.297 30.2031C119.849 30.276 119.354 30.3125 118.812 30.3125C117.823 30.3125 116.958 30.151 116.219 29.8281C115.49 29.4948 114.927 28.9635 114.531 28.2344C114.135 27.5052 113.938 26.5469 113.938 25.3594V8.92188ZM128.406 16.7812V30H123.906V13.0938H128.141L128.406 16.7812ZM133.5 12.9844L133.422 17.1562C133.203 17.125 132.938 17.099 132.625 17.0781C132.323 17.0469 132.047 17.0312 131.797 17.0312C131.161 17.0312 130.609 17.1146 130.141 17.2812C129.682 17.4375 129.297 17.6719 128.984 17.9844C128.682 18.2969 128.453 18.6771 128.297 19.125C128.151 19.5729 128.068 20.0833 128.047 20.6562L127.141 20.375C127.141 19.2812 127.25 18.276 127.469 17.3594C127.688 16.4323 128.005 15.625 128.422 14.9375C128.849 14.25 129.37 13.7188 129.984 13.3438C130.599 12.9688 131.302 12.7812 132.094 12.7812C132.344 12.7812 132.599 12.8021 132.859 12.8438C133.12 12.875 133.333 12.9219 133.5 12.9844ZM134.438 21.7188V21.3906C134.438 20.151 134.615 19.0104 134.969 17.9688C135.323 16.9167 135.839 16.0052 136.516 15.2344C137.193 14.4635 138.026 13.8646 139.016 13.4375C140.005 13 141.141 12.7812 142.422 12.7812C143.703 12.7812 144.844 13 145.844 13.4375C146.844 13.8646 147.682 14.4635 148.359 15.2344C149.047 16.0052 149.568 16.9167 149.922 17.9688C150.276 19.0104 150.453 20.151 150.453 21.3906V21.7188C150.453 22.9479 150.276 24.0885 149.922 25.1406C149.568 26.1823 149.047 27.0938 148.359 27.875C147.682 28.6458 146.849 29.2448 145.859 29.6719C144.87 30.099 143.734 30.3125 142.453 30.3125C141.172 30.3125 140.031 30.099 139.031 29.6719C138.042 29.2448 137.203 28.6458 136.516 27.875C135.839 27.0938 135.323 26.1823 134.969 25.1406C134.615 24.0885 134.438 22.9479 134.438 21.7188ZM138.938 21.3906V21.7188C138.938 22.4271 139 23.0885 139.125 23.7031C139.25 24.3177 139.448 24.8594 139.719 25.3281C140 25.7865 140.365 26.1458 140.812 26.4062C141.26 26.6667 141.807 26.7969 142.453 26.7969C143.078 26.7969 143.615 26.6667 144.062 26.4062C144.51 26.1458 144.87 25.7865 145.141 25.3281C145.411 24.8594 145.609 24.3177 145.734 23.7031C145.87 23.0885 145.938 22.4271 145.938 21.7188V21.3906C145.938 20.7031 145.87 20.0573 145.734 19.4531C145.609 18.8385 145.406 18.2969 145.125 17.8281C144.854 17.349 144.495 16.974 144.047 16.7031C143.599 16.4323 143.057 16.2969 142.422 16.2969C141.786 16.2969 141.245 16.4323 140.797 16.7031C140.359 16.974 140 17.349 139.719 17.8281C139.448 18.2969 139.25 18.8385 139.125 19.4531C139 20.0573 138.938 20.7031 138.938 21.3906ZM157.969 6V30H153.453V6H157.969Z" fill="#EDE7E3"/>
<path d="M77.35 12C78.53 11.83 79.78 13.12 80.14 14.9C80.5 16.67 79.85 18.25 78.67 18.43C77.5 18.61 76.24 17.32 75.87 15.54C75.5 13.77 76.17 12.19 77.35 12ZM84.5 12C85.69 12.19 86.35 13.77 86 15.54C85.62 17.32 84.37 18.61 83.19 18.43C82 18.25 81.35 16.67 81.72 14.9C82.08 13.12 83.33 11.83 84.5 12ZM72 16.6C73.14 16.11 74.69 17 75.5 18.55C76.26 20.13 76 21.79 74.87 22.28C73.74 22.77 72.2 21.89 71.41 20.32C70.62 18.75 70.9 17.08 72 16.6ZM90 16.6C91.1 17.08 91.38 18.75 90.59 20.32C89.8 21.89 88.26 22.77 87.13 22.28C86 21.79 85.74 20.13 86.5 18.55C87.31 17 88.86 16.11 90 16.6ZM88.33 27.38C88.37 28.32 87.65 29.36 86.79 29.75C85 30.57 82.88 28.87 80.89 28.87C78.9 28.87 76.76 30.64 75 29.75C74 29.26 73.31 27.96 73.44 26.88C73.62 25.39 75.41 24.59 76.47 23.5C77.88 22.09 78.88 19.44 80.89 19.44C82.89 19.44 83.95 22.05 85.3 23.5C86.41 24.72 88.26 25.75 88.33 27.38Z" fill="#EDE7E3"/>
</svg>
